<svg width="25" height="26" viewBox="0 0 25 26" fill="none" xmlns="http://www.w3.org/2000/svg">
<path d="M1 1L3.72727 4.29032V14.1613L2.09091 18H25" stroke="#131313" stroke-width="2"/>
<path d="M4 4H23L19.7429 14H4" stroke="#131313" stroke-width="2"/>
<path fill-rule="evenodd" clip-rule="evenodd" d="M4 25C5.10457 25 6 24.1046 6 23C6 21.8954 5.10457 21 4 21C2.89543 21 2 21.8954 2 23C2 24.1046 2.89543 25 4 25Z" stroke="#131313" stroke-width="2" stroke-linecap="square"/>
<path fill-rule="evenodd" clip-rule="evenodd" d="M22 25C23.1046 25 24 24.1046 24 23C24 21.8954 23.1046 21 22 21C20.8954 21 20 21.8954 20 23C20 24.1046 20.8954 25 22 25Z" stroke="#131313" stroke-width="2" stroke-linecap="square"/>
<rect x="12" y="6" width="2" height="6" fill="#1B1B1B"/>
<rect x="16" y="8" width="2" height="6" transform="rotate(90 16 8)" fill="#1B1B1B"/>
</svg>
