<svg width="19" height="18" viewBox="0 0 19 18" fill="none" xmlns="http://www.w3.org/2000/svg">
<path fill-rule="evenodd" clip-rule="evenodd" d="M10.8073 8.80348L17.8784 1.73241C18.3026 1.30815 18.3026 0.742462 17.8784 0.318198C17.4541 -0.106066 16.8884 -0.106066 16.4641 0.318198L9.39308 7.38927L2.32201 0.318198C1.89775 -0.106066 1.33206 -0.106066 0.907798 0.318198C0.483534 0.742462 0.483534 1.30815 0.907798 1.73241L7.97887 8.80348L0.907798 15.8745C0.483534 16.2988 0.483534 16.8645 0.907798 17.2888C1.33206 17.713 1.89775 17.713 2.32201 17.2888L9.39308 10.2177L16.4641 17.2888C16.8884 17.713 17.4541 17.713 17.8784 17.2888C18.3026 16.8645 18.3026 16.2988 17.8784 15.8745L10.8073 8.80348Z" fill="white"/>
</svg>
