<svg width="71" height="11" viewBox="0 0 71 11" fill="none" xmlns="http://www.w3.org/2000/svg">
<path d="M66.5048 4.21718L66.6163 4.56426H66.9808H69.998L67.5858 6.43222L67.3077 6.64762L67.4165 6.98217L68.4232 10.0778L65.7944 8.16796L65.5005 7.95445L65.2066 8.16796L62.5778 10.0778L63.5845 6.98217L63.6933 6.64756L63.4151 6.43217L61.0022 4.56426H64.0201H64.3846L64.4962 4.21728L65.5009 1.09183L66.5048 4.21718ZM60.3988 4.09711C60.3989 4.09719 60.399 4.09727 60.3991 4.09734L60.3989 4.09723L60.3988 4.09711Z" stroke="black"/>
<path d="M55.7617 4.06426H51.9808L50.7281 0.164484C50.6959 0.0663378 50.6043 0 50.501 0C50.3976 0 50.306 0.0663378 50.2738 0.164484L49.0201 4.06426H45.2392C45.1369 4.06425 45.0459 4.12929 45.0129 4.22609C44.9798 4.32289 45.0119 4.43002 45.0928 4.4926L48.109 6.82755L46.8539 10.6869C46.8219 10.7855 46.857 10.8934 46.9408 10.9543C47.0247 11.0152 47.1382 11.0152 47.222 10.9543L50.5005 8.57247L53.779 10.9543C53.8628 11.0152 53.9763 11.0152 54.0601 10.9543C54.144 10.8934 54.179 10.7855 54.147 10.6869L52.892 6.82755L55.9071 4.4926C55.9879 4.43012 56.0201 4.32325 55.9873 4.22654C55.9545 4.12984 55.8639 4.06465 55.7617 4.06426Z" fill="#131313"/>
<path d="M40.7617 4.06426H36.9808L35.7281 0.164484C35.6959 0.0663378 35.6043 0 35.501 0C35.3976 0 35.306 0.0663378 35.2738 0.164484L34.0201 4.06426H30.2392C30.1369 4.06425 30.0459 4.12929 30.0129 4.22609C29.9798 4.32289 30.0119 4.43002 30.0928 4.4926L33.109 6.82755L31.8539 10.6869C31.8219 10.7855 31.857 10.8934 31.9408 10.9543C32.0247 11.0152 32.1382 11.0152 32.222 10.9543L35.5005 8.57247L38.779 10.9543C38.8628 11.0152 38.9763 11.0152 39.0601 10.9543C39.144 10.8934 39.179 10.7855 39.147 10.6869L37.892 6.82755L40.9071 4.4926C40.9879 4.43012 41.0201 4.32325 40.9873 4.22654C40.9545 4.12984 40.8639 4.06465 40.7617 4.06426Z" fill="#131313"/>
<path d="M25.7617 4.06426H21.9808L20.7281 0.164484C20.6959 0.0663378 20.6043 0 20.501 0C20.3976 0 20.306 0.0663378 20.2738 0.164484L19.0201 4.06426H15.2392C15.1369 4.06425 15.0459 4.12929 15.0129 4.22609C14.9798 4.32289 15.0119 4.43002 15.0928 4.4926L18.109 6.82755L16.8539 10.6869C16.8219 10.7855 16.857 10.8934 16.9408 10.9543C17.0247 11.0152 17.1382 11.0152 17.222 10.9543L20.5005 8.57247L23.779 10.9543C23.8628 11.0152 23.9763 11.0152 24.0601 10.9543C24.144 10.8934 24.179 10.7855 24.147 10.6869L22.892 6.82755L25.9071 4.4926C25.9879 4.43012 26.0201 4.32325 25.9873 4.22654C25.9545 4.12984 25.8639 4.06465 25.7617 4.06426Z" fill="#131313"/>
<path d="M10.7617 4.06426H6.98081L5.72815 0.164484C5.69589 0.0663378 5.60426 0 5.50096 0C5.39765 0 5.30602 0.0663378 5.27376 0.164484L4.02015 4.06426H0.239207C0.136916 4.06425 0.045938 4.12929 0.0128618 4.22609C-0.0202143 4.32289 0.0119355 4.43002 0.0928482 4.4926L3.10899 6.82755L1.85394 10.6869C1.82191 10.7855 1.85698 10.8934 1.94082 10.9543C2.02465 11.0152 2.13817 11.0152 2.22199 10.9543L5.50048 8.57247L8.77897 10.9543C8.86278 11.0152 8.9763 11.0152 9.06014 10.9543C9.14397 10.8934 9.17905 10.7855 9.14702 10.6869L7.89196 6.82755L10.9071 4.4926C10.9879 4.43012 11.0201 4.32325 10.9873 4.22654C10.9545 4.12984 10.8639 4.06465 10.7617 4.06426Z" fill="#131313"/>
</svg>
