<svg width="16" height="16" viewBox="0 0 16 16" fill="none" xmlns="http://www.w3.org/2000/svg">
<path fill-rule="evenodd" clip-rule="evenodd" d="M6.2962 7C6.74888 4.57197 9 2.8789 9 2.8789C8.24569 -1.42436 7.21194 0.352324 7.172 0.42096L7.17081 0.422969C5.21984 3.87466 6.2962 7 6.2962 7ZM6 8C4.63809 6.00741 5.24885 3.13011 5.24885 3.13011C1.58209 0.797212 2.00577 2.78611 2.02327 2.86825L2.02327 2.86826L2.02329 2.86835L2.02374 2.87052C2.02379 2.87073 2.0238 2.87084 2.02379 2.87084C2.90693 6.70902 6 8 6 8ZM2.8789 7C2.8789 7 4.57197 9.25112 7 9.7038C7 9.7038 3.87466 10.7802 0.422969 8.82919C0.422969 8.82919 -1.50719 7.76882 2.8789 7ZM8 10C6.0073 11.3619 3.12984 10.7512 3.12984 10.7512C0.791665 14.426 2.79591 13.9923 2.86855 13.9766L2.86859 13.9766C2.86991 13.9763 2.87058 13.9762 2.87056 13.9762C6.70895 13.0931 8 10 8 10ZM7 13.1211C7 13.1211 9.25112 11.428 9.7038 9C9.7038 9 10.7802 12.1253 8.82919 15.577C8.82919 15.577 7.76882 17.5072 7 13.1211ZM10 8C11.3619 9.99259 10.7512 12.8699 10.7512 12.8699C14.4179 15.2028 13.9942 13.2139 13.9767 13.1318C13.9764 13.13 13.9762 13.1292 13.9762 13.1292C13.0931 9.29098 10 8 10 8ZM13.1211 9C13.1211 9 11.428 6.74888 9 6.2962C9 6.2962 12.1253 5.21984 15.577 7.17081L15.579 7.172C15.6477 7.21194 17.4244 8.24569 13.1211 9ZM8 6C9.99393 4.63809 12.8699 5.24885 12.8699 5.24885C15.2028 1.58209 13.2139 2.00577 13.1318 2.02327C13.13 2.02363 13.1292 2.02382 13.1292 2.02379C9.29098 2.90693 8 6 8 6Z" fill="#383B48"/>
</svg>
